<!-- icon666.com - MILLIONS vector ICONS FREE --><svg viewBox="0 0 32 32" xmlns="http://www.w3.org/2000/svg"><g id="Layer_3" data-name="Layer 3"><path d="m24 24a1 1 0 0 1 -1 1h-14a1 1 0 0 1 0-2h14a1 1 0 0 1 1 1zm-1-9h-14a1 1 0 0 0 0 2h14a1 1 0 0 0 0-2zm0-8h-14a1 1 0 0 0 0 2h14a1 1 0 0 0 0-2zm5-2v22a3 3 0 0 1 -3 3h-18a3 3 0 0 1 -3-3v-22a3 3 0 0 1 3-3h18a3 3 0 0 1 3 3zm-2 0a1 1 0 0 0 -1-1h-18a1 1 0 0 0 -1 1v22a1 1 0 0 0 1 1h18a1 1 0 0 0 1-1z" fill="#000000" style="fill: rgb(255, 255, 255);"></path></g></svg>