<!-- icon666.com - MILLIONS vector ICONS FREE --><svg id="Layer_1" viewBox="0 0 32 32" xmlns="http://www.w3.org/2000/svg" data-name="Layer 1"><g fill="rgb(0,0,0)"><path d="m26 1h-20a1 1 0 0 0 -1 1v15.791a3.212 3.212 0 0 0 3.209 3.209h3.691l-.5 4.92a4.62 4.62 0 1 0 9.194 0l-.489-4.92h3.686a3.212 3.212 0 0 0 3.209-3.209v-15.791a1 1 0 0 0 -1-1zm-7.393 25.12a2.587 2.587 0 0 1 -.665 2.018 2.678 2.678 0 0 1 -3.884 0 2.587 2.587 0 0 1 -.665-2.018l.512-5.12h4.195zm6.393-8.329a1.21 1.21 0 0 1 -1.209 1.209h-15.582a1.21 1.21 0 0 1 -1.209-1.209v-2.791h15a1 1 0 0 0 0-2h-15v-10h18z" fill="rgb(0,0,0)" style="fill: rgb(0, 0, 0);"></path><path d="m16 11a1 1 0 0 0 1-1v-4a1 1 0 0 0 -2 0v4a1 1 0 0 0 1 1z" fill="rgb(0,0,0)" style="fill: rgb(0, 0, 0);"></path><path d="m21 11a1 1 0 0 0 1-1v-4a1 1 0 0 0 -2 0v4a1 1 0 0 0 1 1z" fill="rgb(0,0,0)" style="fill: rgb(0, 0, 0);"></path><path d="m11 11a1 1 0 0 0 1-1v-4a1 1 0 0 0 -2 0v4a1 1 0 0 0 1 1z" fill="rgb(0,0,0)" style="fill: rgb(0, 0, 0);"></path></g></svg>